<svg xmlns="http://www.w3.org/2000/svg" width="661.096" height="172.234" viewBox="0 0 661.096 172.234">
  <g id="Grupo_7" data-name="Grupo 7" transform="translate(-103.904 -104.377)">
    <g id="Grupo_4" data-name="Grupo 4" transform="translate(-822 1340.366)">
      <path id="Caminho_6" data-name="Caminho 6" d="M1003.12-1177.83h26.26s1.566-23.156-16.283-40.368c-7.541-8.08-19.68-13.15-30.31-13.715-14.336-.763-42.52,5.109-52.083,40.012-1.079,4.5-.548,9.827-.8,15.777.162.269,89.246,88.766,89.246,88.766s-14.63,19.6-38.089,19.6a51.709,51.709,0,0,1-23.9-5.578c-14.136-7.469-29.8-27.889-26.455-48.129h20.718" fill="none" stroke="#f8b500" stroke-linejoin="round" stroke-width="8"/>
      <path id="Caminho_7" data-name="Caminho 7" d="M1019.1-1088.09c1.545-.834,6.634-6.817,9.12-18.419-.414,0-92.4-95.13-92.4-95.13" fill="none" stroke="#f8b500" stroke-linejoin="round" stroke-width="8"/>
    </g>
    <g id="Grupo_6" data-name="Grupo 6">
      <text id="GERENCIAMENTOEFICIENTE_EM_SINCRONIA_PERFEITA_" data-name="GERENCIAMENTOEFICIENTE EM SINCRONIA PERFEITA " transform="translate(234 265)" fill="#fff" font-size="17" font-family="CenturySchoolbook, Century Schoolbook"><tspan x="0" y="0">GERENCIAMENTO EFICIENTE EM SINCRONIA PERFEITA</tspan></text>
      <g id="Grupo_5" data-name="Grupo 5" transform="translate(-10 17)">
        <text id="SYNCPRO" transform="translate(252 193)" fill="#fff" font-size="107" font-family="FranklinGothic-Book, Franklin Gothic Book" letter-spacing="0.12em"><tspan x="0" y="0">SYNCPRO</tspan></text>
        <g id="Retângulo_1" data-name="Retângulo 1" transform="translate(244 109)" fill="none" stroke="#5f79f4" stroke-linecap="round" stroke-width="2">
          <rect width="531" height="96" rx="8" stroke="none"/>
          <rect x="1" y="1" width="529" height="94" rx="7" fill="none"/>
        </g>
      </g>
    </g>
  </g>
</svg>
