<svg xmlns="http://www.w3.org/2000/svg" width="1303" height="1319" viewBox="0 0 1303 1319">
  <g id="Grupo_17" data-name="Grupo 17" transform="translate(-2636 1077)">
    <g id="Grupo_2" data-name="Grupo 2" transform="translate(1640.317 -749.088)">
      <g id="Elipse_2" data-name="Elipse 2" transform="translate(1369 -11)" fill="none">
        <path d="M345.183,0C535.822,0,690.365,153.407,690.365,342.645S535.822,685.289,345.183,685.289,0,531.882,0,342.645,154.544,0,345.183,0Z" stroke="none"/>
        <path d="M 345.1826171875 2 C 321.8958129882812 2 298.624267578125 4.32861328125 276.0144348144531 8.9212646484375 C 253.9802551269531 13.39697265625 232.306884765625 20.07525634765625 211.5961608886719 28.77069091796875 C 191.2613525390625 37.30841064453125 171.6481323242188 47.87579345703125 153.3016967773438 60.1793212890625 C 135.1292724609375 72.36614990234375 118.0405883789062 86.36181640625 102.5106201171875 101.7777099609375 C 86.98089599609375 117.1932373046875 72.88177490234375 134.1557006835938 60.60516357421875 152.1939697265625 C 48.21124267578125 170.4044189453125 37.56634521484375 189.8719787597656 28.966064453125 210.0558166503906 C 20.20709228515625 230.6120910644531 13.47998046875 252.1238098144531 8.9716796875 273.9935302734375 C 6.6798095703125 285.1111755371094 4.93035888671875 296.4902648925781 3.771728515625 307.8147277832031 C 2.5960693359375 319.3059997558594 2 331.0244445800781 2 342.64453125 C 2 354.2646179199219 2.5960693359375 365.9830627441406 3.771728515625 377.4743347167969 C 4.93035888671875 388.7987976074219 6.6798095703125 400.1778869628906 8.9716796875 411.2955322265625 C 13.47998046875 433.1652526855469 20.20709228515625 454.677001953125 28.966064453125 475.2332763671875 C 37.56634521484375 495.4170837402344 48.21124267578125 514.8846435546875 60.60516357421875 533.0950927734375 C 72.88177490234375 551.1333618164062 86.98089599609375 568.0958251953125 102.5106201171875 583.5113525390625 C 118.0405883789062 598.92724609375 135.1292724609375 612.9229125976562 153.3016967773438 625.1097412109375 C 171.6481323242188 637.4132690429688 191.2613525390625 647.9805908203125 211.5961608886719 656.5183715820312 C 232.306884765625 665.2138061523438 253.9802551269531 671.89208984375 276.0144348144531 676.3677978515625 C 298.624267578125 680.96044921875 321.8958129882812 683.2890625 345.1826171875 683.2890625 C 368.4694213867188 683.2890625 391.740966796875 680.96044921875 414.3507995605469 676.3677978515625 C 436.3849792480469 671.89208984375 458.058349609375 665.2138061523438 478.7690734863281 656.5183715820312 C 499.1038818359375 647.9805908203125 518.717041015625 637.4132690429688 537.0635375976562 625.1097412109375 C 555.2359619140625 612.9229125976562 572.3245849609375 598.92724609375 587.8546142578125 583.5113525390625 C 603.3843383789062 568.0958251953125 617.4834594726562 551.1333618164062 629.7600708007812 533.0950927734375 C 642.1539916992188 514.8846435546875 652.7988891601562 495.4170837402344 661.399169921875 475.2332763671875 C 670.1581420898438 454.677001953125 676.88525390625 433.1652526855469 681.3935546875 411.2955322265625 C 683.6854248046875 400.1778869628906 685.4348754882812 388.7987976074219 686.593505859375 377.4743347167969 C 687.7691650390625 365.9830627441406 688.365234375 354.2646179199219 688.365234375 342.64453125 C 688.365234375 331.0244445800781 687.7691650390625 319.3059997558594 686.593505859375 307.8147277832031 C 685.4348754882812 296.4902648925781 683.6854248046875 285.1111755371094 681.3935546875 273.9935302734375 C 676.88525390625 252.1238098144531 670.1581420898438 230.6120910644531 661.399169921875 210.0558166503906 C 652.7988891601562 189.8719787597656 642.1539916992188 170.4044189453125 629.7600708007812 152.1939697265625 C 617.4834594726562 134.1557006835938 603.3843383789062 117.1932373046875 587.8546142578125 101.7777099609375 C 572.3245849609375 86.36181640625 555.2359619140625 72.36614990234375 537.0635375976562 60.1793212890625 C 518.717041015625 47.87579345703125 499.1038818359375 37.30841064453125 478.7690734863281 28.77069091796875 C 458.058349609375 20.07525634765625 436.3849792480469 13.39697265625 414.3507995605469 8.9212646484375 C 391.740966796875 4.32861328125 368.4694213867188 2 345.1826171875 2 M 345.1826171875 0 C 535.8217163085938 0 690.365234375 153.4071655273438 690.365234375 342.64453125 C 690.365234375 531.8818969726562 535.8217163085938 685.2890625 345.1826171875 685.2890625 C 154.5435180664062 685.2890625 0 531.8818969726562 0 342.64453125 C 0 153.4071655273438 154.5435180664062 0 345.1826171875 0 Z" stroke="none" fill="#707070"/>
      </g>
      <g id="Elipse_3" data-name="Elipse 3" transform="translate(1538.758 39.071)">
        <path id="Caminho_28" data-name="Caminho 28" d="M351.653,2.292c-10.4-1.579-24.711,4.949-41.574,17.889a401.914,401.914,0,0,0-56,55.249,1002.531,1002.531,0,0,0-63.381,82.8C169.071,189.437,147,224.219,125.482,261.5s-40.61,73.783-56.854,108.123a1002.534,1002.534,0,0,0-40.011,96.29A401.913,401.913,0,0,0,8.769,542.062c-2.777,21.076-1.274,36.732,5.295,44.95,6.721,8.406,18.1,8.234,33.066.472,15.274-7.924,34.219-23.721,55.61-46.224a837.813,837.813,0,0,0,70.981-87.585C199.1,418.329,225.24,377.8,250.656,333.769s47.432-86.935,65.377-126.56a837.821,837.821,0,0,0,40.331-105.245c8.792-29.777,13-54.082,12.229-71.27C367.83,13.851,362.292,3.907,351.653,2.292Z" transform="translate(-7.444 -2.058)" fill="none"/>
        <path id="Caminho_29" data-name="Caminho 29" d="M16.605,582.582a24.5,24.5,0,0,1-3.929-7.289,45.4,45.4,0,0,1-2.168-9.853,84.8,84.8,0,0,1-.445-12.325q.2-6.754,1.242-14.711.5-3.815,1.19-7.888t1.569-8.386q.877-4.3,1.939-8.843,1.059-4.523,2.3-9.269,1.225-4.683,2.628-9.592,1.4-4.893,2.97-9.986t3.3-10.345q1.728-5.251,3.616-10.668t3.926-10.977q2.039-5.561,4.231-11.273t4.518-11.531q2.326-5.819,4.79-11.752,2.482-5.977,5.107-12.076t5.373-12.279q2.748-6.18,5.62-12.443t5.85-12.569q6.193-13.113,12.812-26.368,6.605-13.228,13.622-26.574,7.006-13.327,14.408-26.746t15.176-26.882q7.777-13.47,15.693-26.584T157.9,209.522q8.046-12.743,16.2-25.084t16.429-24.279q3.976-5.738,7.96-11.351t7.966-11.089q3.982-5.476,7.947-10.793t7.905-10.461q3.9-5.1,7.782-10.025t7.727-9.678q3.848-4.751,7.647-9.3t7.543-8.889q3.745-4.34,7.431-8.465t7.309-8.03q3.624-3.905,7.164-7.566t6.993-7.073Q285.4,44,288.786,40.814t6.688-6.1q3.3-2.918,6.474-5.55t6.237-4.975q6.372-4.88,12.12-8.432a84.864,84.864,0,0,1,10.9-5.778,45.431,45.431,0,0,1,9.618-3.049,24.521,24.521,0,0,1,8.275-.241,16.165,16.165,0,0,1,6.754,2.629,17.5,17.5,0,0,1,5.058,5.533,30.315,30.315,0,0,1,3.3,8.483A60.337,60.337,0,0,1,365.7,34.807q.136,3.123.047,6.586t-.4,7.266q-.312,3.8-.849,7.925t-1.3,8.563q-.757,4.4-1.738,9.1t-2.185,9.712q-1.2,5.009-2.627,10.289t-3.064,10.832q-1.642,5.551-3.5,11.36t-3.934,11.87q-2.074,6.061-4.353,12.337t-4.759,12.759q-2.505,6.544-5.213,13.289t-5.614,13.676q-2.906,6.931-6,14.012t-6.355,14.293q-6.8,15.01-14.246,30.36-7.457,15.366-15.527,30.99t-16.719,31.432q-8.645,15.8-17.815,31.685t-18.533,31.271q-9.356,15.377-18.862,30.2-9.488,14.79-19.074,28.942-9.563,14.116-19.17,27.518-4.607,6.426-9.2,12.65t-9.137,12.2q-4.543,5.974-9.037,11.7t-8.9,11.158q-4.367,5.384-8.67,10.5t-8.508,9.939q-4.2,4.812-8.313,9.34-4.1,4.508-8.087,8.711-3.978,4.188-7.848,8.071-3.86,3.868-7.6,7.416T81.3,559.51q-3.582,3.2-7.015,6.056-3.457,2.878-6.765,5.406t-6.439,4.7q-3.131,2.162-6.093,3.98T49.259,582.9a60.42,60.42,0,0,1-10.681,4.447,30.235,30.235,0,0,1-9,1.381,17.392,17.392,0,0,1-7.321-1.614,16.16,16.16,0,0,1-5.654-4.533m-2.538,4.4c6.721,8.406,18.1,8.234,33.064.472,15.273-7.924,34.221-23.721,55.61-46.224,21.734-22.868,45.862-52.524,70.98-87.55,25.349-35.347,51.5-75.878,76.918-119.9s47.443-86.939,65.38-126.565c17.774-39.266,31.392-74.989,40.328-105.244,8.794-29.776,13-54.084,12.227-71.272-.759-16.838-6.3-26.782-16.939-28.4-10.4-1.58-24.709,4.948-41.573,17.888-16.542,12.693-35.611,31.609-56,55.25-20.1,23.308-41.589,51.341-63.383,82.8-21.624,31.211-43.7,66.012-65.212,103.278S84.853,335.288,68.635,369.62c-16.345,34.6-29.877,67.23-40.013,96.29C18.34,495.385,11.494,521.357,8.772,542.028,6,563.1,7.5,578.759,14.067,586.978Z" transform="translate(-7.429 -2.06)" fill="#707070"/>
      </g>
      <g id="Elipse_4" data-name="Elipse 4" transform="translate(1478.841 0.783)">
        <path id="Caminho_30" data-name="Caminho 30" d="M160.759,6.857A135.063,135.063,0,0,0,85.225,45.888a220.085,220.085,0,0,0-50.9,85.28A383.032,383.032,0,0,0,14.965,251.663,527.578,527.578,0,0,0,33.447,392.878a527.927,527.927,0,0,0,54.62,131.586,383.763,383.763,0,0,0,77.027,94.717A220.622,220.622,0,0,0,251.852,667.7a135.2,135.2,0,0,0,84.961-3.827,151.22,151.22,0,0,0,67.108-53.935A260.125,260.125,0,0,0,443.6,520.854a415.935,415.935,0,0,0,11.477-111.626,534.25,534.25,0,0,0-18.351-124.063A534.555,534.555,0,0,0,390.579,168.53a416.618,416.618,0,0,0-65.757-90.981,260.757,260.757,0,0,0-78.945-57.412A151.489,151.489,0,0,0,160.759,6.857Z" transform="translate(-14.942 -5.356)" fill="none"/>
        <path id="Caminho_31" data-name="Caminho 31" d="M335.511,659.111a128.6,128.6,0,0,1-19.845,5.919,127.038,127.038,0,0,1-20.615,2.624,135.638,135.638,0,0,1-21.317-.731,152,152,0,0,1-21.949-4.168q-5.349-1.424-10.734-3.249t-10.8-4.061q-5.415-2.231-10.825-4.863t-10.811-5.65q-5.348-3-10.676-6.386t-10.629-7.152q-5.3-3.769-10.54-7.9t-10.41-8.63q-5.169-4.492-10.259-9.345t-10.09-10.051q-5-5.2-9.881-10.721t-9.633-11.35q-4.8-5.893-9.452-12.092t-9.163-12.7q-4.505-6.5-8.836-13.264t-8.472-13.777q-8.619-14.589-16.316-30.046T59.812,459.809q-6.744-16.25-12.489-33.2t-10.45-34.514q-4.7-17.555-8.206-35.114-3.5-17.539-5.784-34.992-2.281-17.425-3.342-34.676-1.058-17.214-.89-34.168.081-8.132.451-16.16t1.023-15.895q.653-7.867,1.588-15.57t2.145-15.184q1.2-7.411,2.669-14.638t3.2-14.213q1.729-6.988,3.716-13.738t4.214-13.212q2.227-6.462,4.7-12.666t5.18-12.1q2.7-5.9,5.631-11.5T59.23,87.419q3.16-5.3,6.539-10.288t6.948-9.608q3.568-4.625,7.327-8.9t7.677-8.164a151.309,151.309,0,0,1,16.933-14.551,134.891,134.891,0,0,1,18.1-11.263,127.312,127.312,0,0,1,39.329-12.763,132.487,132.487,0,0,1,20.738-1.52,139.791,139.791,0,0,1,20.937,1.7,155.305,155.305,0,0,1,21.068,4.852,179.412,179.412,0,0,1,21.134,7.933q5.076,2.269,10.146,4.89t10.09,5.567q5.022,2.946,10,6.219t9.882,6.847q4.856,3.54,9.661,7.392t9.524,7.983q4.719,4.131,9.358,8.543t9.164,9.074q4.524,4.661,8.958,9.592t8.746,10.095q4.313,5.163,8.508,10.561t8.244,10.993q4.087,5.648,8.046,11.524t7.765,11.939q3.806,6.063,7.461,12.313t7.134,12.649q7.238,13.308,13.714,27.192,6.466,13.86,12.163,28.26,5.689,14.382,10.6,29.275T434.151,286q4.114,15.353,7.305,30.7t5.456,30.648q2.261,15.31,3.594,30.548t1.716,30.4q.19,7.286.147,14.516t-.31,14.388q-.259,7.157-.756,14.214t-1.208,14q-.708,6.874-1.645,13.634t-2.088,13.389q-1.157,6.632-2.53,13.107t-2.965,12.777q-1.591,6.3-3.4,12.427-1.811,6.137-3.836,12.071t-4.26,11.66q-2.236,5.734-4.673,11.224-2.464,5.543-5.138,10.858T414,586.917q-2.883,5.064-5.959,9.853t-6.345,9.295a178.555,178.555,0,0,1-14.344,17.406,154.641,154.641,0,0,1-15.828,14.706,139.582,139.582,0,0,1-17.289,11.914,132.289,132.289,0,0,1-18.728,9.02m1.314,4.9c26.636-10.381,49.137-29.122,67.106-53.935,17.687-24.422,31.042-54.813,39.679-89.093,8.538-33.879,12.5-71.715,11.482-111.625A534.572,534.572,0,0,0,436.742,285.3,534.544,534.544,0,0,0,390.6,168.67c-19.073-35.09-41.432-65.9-65.772-91-24.627-25.4-51.4-45.068-78.934-57.413C217.911,7.719,189.044,2.7,160.772,6.978c-28.806,4.362-54.252,17.96-75.526,39.031C63.613,67.435,46.358,96.522,34.342,131.3c-12.171,35.228-18.908,76.125-19.363,120.475-.458,44.676,5.461,92.564,18.5,141.226s31.86,93.1,54.6,131.587c22.574,38.2,48.864,70.275,77.028,94.732,27.8,24.142,57.3,40.742,86.759,48.524C280.837,675.5,309.684,674.593,336.824,664.014Z" transform="translate(-14.954 -5.478)" fill="#707070"/>
      </g>
      <g id="Elipse_5" data-name="Elipse 5" transform="translate(1581.616 2.259)">
        <path id="Caminho_32" data-name="Caminho 32" d="M54.566.889C41.5.326,31.3,9.169,24.088,25.92c-7.345,17.1-11.528,42.371-12.4,74.072a697.148,697.148,0,0,0,7.756,113.915A1193.21,1193.21,0,0,0,48.52,354.372,1194.174,1194.174,0,0,0,93.587,490.6a699.019,699.019,0,0,0,50.255,102.631c16.609,27.061,32.879,46.9,47.808,58.087,14.625,10.965,27.919,13.574,38.96,6.6,10.8-6.812,18.462-22.153,23.142-43.838a345.22,345.22,0,0,0,5.371-80.448,827.108,827.108,0,0,0-10.716-104.986A1220.479,1220.479,0,0,0,222.38,308.214,1221.348,1221.348,0,0,0,184.71,190.9a828.943,828.943,0,0,0-43.254-96.357,346.708,346.708,0,0,0-44.889-67.1C81.662,10.955,67.342,1.443,54.566.889Z" transform="translate(-11.523 -0.864)" fill="none"/>
        <path id="Caminho_33" data-name="Caminho 33" d="M229.387,653.024a24.4,24.4,0,0,1-8.339,3.32,25.629,25.629,0,0,1-9.195.051,38.075,38.075,0,0,1-10.033-3.3,65.177,65.177,0,0,1-10.851-6.731q-2.707-2.041-5.492-4.477t-5.647-5.279q-2.862-2.848-5.782-6.071t-5.9-6.853q-2.949-3.586-5.946-7.553t-6.041-8.31q-3.044-4.34-6.114-9.036t-6.165-9.741q-3.094-5.048-6.2-10.437t-6.231-11.112q-3.12-5.718-6.234-11.746T119,543.4q-3.128-6.381-6.237-13.051t-6.192-13.625q-3.082-6.952-6.122-14.14t-6.026-14.6Q88.209,472.546,82.3,456.386q-5.91-16.176-11.475-32.994t-10.757-34.2q-5.188-17.375-9.967-35.21t-8.972-35.474q-4.192-17.629-7.784-34.991-3.586-17.33-6.556-34.3-2.962-16.928-5.294-33.4-1.118-7.9-2.081-15.653-.962-7.737-1.766-15.3-.8-7.544-1.446-14.882t-1.121-14.41q-.474-7.006-.789-13.785-.315-6.764-.472-13.278-.157-6.5-.156-12.724,0-6.209.159-12.123t.472-11.5q.313-5.59.78-10.869t1.082-10.2q.615-4.921,1.378-9.5.768-4.606,1.686-8.864T21.2,44.6q1.058-3.875,2.255-7.378t2.523-6.6A64.375,64.375,0,0,1,32.023,19.4,37.566,37.566,0,0,1,39.07,11.56a25.579,25.579,0,0,1,8-4.517,24.447,24.447,0,0,1,8.9-1.25,32.4,32.4,0,0,1,9.6,1.946,51.072,51.072,0,0,1,10.124,5.046,85.061,85.061,0,0,1,10.6,8.053A138.516,138.516,0,0,1,97.329,31.812q2.7,2.978,5.442,6.287t5.505,6.915q2.762,3.606,5.55,7.512t5.576,8.081q2.762,4.135,5.544,8.554t5.558,9.086q2.778,4.665,5.555,9.583T141.6,97.877q2.756,5.129,5.508,10.5t5.476,10.932q2.724,5.565,5.427,11.329t5.362,11.689q2.686,5.981,5.343,12.154t5.268,12.5q2.611,6.324,5.178,12.8t5.072,13.062q5.211,13.7,10.151,27.817,4.93,14.093,9.582,28.58,4.645,14.466,9.006,29.3t8.419,29.98q4.061,15.154,7.7,30.172t6.849,29.872q3.212,14.862,5.989,29.533t5.114,29.154q1.124,6.961,2.137,13.841t1.913,13.666q.9,6.786,1.684,13.448t1.448,13.188q.659,6.465,1.2,12.795t.961,12.515q.422,6.183.721,12.193t.475,11.833q.176,5.825.227,11.457t-.023,11.061q-.074,5.437-.274,10.635t-.528,10.168q-.331,5.01-.792,9.772t-1.055,9.264q-.592,4.508-1.315,8.726t-1.574,8.147a137.857,137.857,0,0,1-4.083,14.99,84.724,84.724,0,0,1-5.165,12.239,50.738,50.738,0,0,1-6.255,9.391,32.281,32.281,0,0,1-7.353,6.452m1.314,4.9c10.8-6.807,18.46-22.153,23.141-43.833,4.592-21.274,6.338-48.742,5.37-80.448-.955-31.271-4.554-66.841-10.715-104.989a1220.472,1220.472,0,0,0-26.024-120.428,1221.438,1221.438,0,0,0-37.684-117.333c-13.743-36.136-28.419-68.765-43.235-96.354-15.026-27.979-30.28-50.931-44.906-67.1C81.741,10.952,67.424,1.443,54.649.89,41.58.324,31.367,9.174,24.167,25.93,16.82,43.03,12.637,68.3,11.772,100c-.878,32.2,1.673,70.855,7.758,113.917A1193.168,1193.168,0,0,0,48.6,354.379,1194.123,1194.123,0,0,0,93.667,490.6c16.267,40.361,33.392,75.143,50.266,102.631,16.61,27.061,32.88,46.9,47.807,58.092C206.366,662.278,219.65,664.892,230.7,657.923Z" transform="translate(-11.604 -0.863)" fill="#707070"/>
      </g>
      <g id="Elipse_6" data-name="Elipse 6" transform="translate(1386.937 267.338)">
        <path id="Caminho_34" data-name="Caminho 34" d="M665.749,2.444c4.569,1.467-.457,5.254-13.706,10.909-13.523,5.782-35.579,13.493-64.61,22.62-29.508,9.279-66.052,19.97-107.763,31.473-42.1,11.625-89.133,23.965-138.921,36.376s-97.123,23.6-139.8,33.117c-42.26,9.432-79.575,17.158-110.027,22.843-29.95,5.584-53.107,9.137-67.813,10.4-14.4,1.234-20.66.259-17.386-3.157,3.2-3.34,15.229-8.7,33.934-15.477,18.366-6.645,43.27-14.685,72.879-23.574,29.2-8.8,63.118-18.442,100.159-28.478,36.747-9.965,76.829-20.422,118.824-30.874s82.3-20.076,119.443-28.528c37.442-8.523,71.945-15.934,101.859-21.9,30.366-6.061,56.158-10.691,75.544-13.432C648.129,1.911,661.3,1.013,665.749,2.444Z" transform="translate(-4.873 -1.773)" fill="none"/>
        <path id="Caminho_35" data-name="Caminho 35" d="M10.653,165.772Q9.5,166.991,9.977,167.8t2.612,1.2a33.071,33.071,0,0,0,5.967.356q3.843-.037,9.386-.515,2.675-.231,5.744-.566t6.538-.776q3.468-.441,7.314-.985t8.072-1.192q4.187-.643,8.74-1.387t9.471-1.59q4.919-.847,10.173-1.79t10.842-1.985q5.587-1.041,11.5-2.178t12.138-2.368q6.226-1.232,12.733-2.551t13.283-2.724q6.841-1.419,13.948-2.923t14.466-3.093q7.359-1.588,14.929-3.25t15.334-3.4q16.16-3.608,32.905-7.464,16.763-3.86,34.021-7.949t34.932-8.387q17.665-4.3,35.634-8.777t35.58-8.979q17.6-4.5,34.775-8.992,17.14-4.488,33.758-8.95,16.576-4.451,32.541-8.853,7.655-2.111,15.125-4.2,7.454-2.084,14.7-4.137,7.226-2.048,14.213-4.058t13.675-3.964q6.624-1.936,13-3.827,6.35-1.887,12.427-3.722,6.053-1.831,11.812-3.6,5.741-1.768,11.158-3.471T593.9,33.423q5.071-1.63,9.807-3.191,4.721-1.556,9.091-3.038t8.35-2.874q4.02-1.406,7.67-2.732t6.9-2.559q3.251-1.234,6.117-2.379t5.32-2.192q5.1-2.175,8.487-3.941A32.506,32.506,0,0,0,660.7,7.411q1.675-1.341,1.7-2.279c.015-.621-.518-1.109-1.589-1.462a18.384,18.384,0,0,0-4.756-.642q-3.129-.115-7.767.172-4.607.285-10.68.965-6.038.676-13.5,1.739c-2.381.339-4.873.708-7.462,1.105s-5.274.822-8.056,1.275-5.655.932-8.619,1.439-6.015,1.038-9.152,1.6q-4.652.828-9.574,1.734-4.9.9-10.066,1.883-5.14.976-10.518,2.024-5.36,1.045-10.939,2.157t-11.345,2.288q-5.772,1.175-11.731,2.415t-12.086,2.533Q508.446,27.648,502.17,29q-6.327,1.359-12.817,2.777t-13.1,2.883q-6.615,1.466-13.356,2.98T449.328,40.7q-14.19,3.229-28.687,6.612-14.468,3.376-29.216,6.9-14.725,3.517-29.7,7.175T331.567,68.83q-15.184,3.786-30.117,7.586t-29.59,7.609q-14.664,3.81-29.026,7.622t-28.421,7.627q-6.758,1.834-13.409,3.658T187.82,106.57q-6.532,1.813-12.916,3.605T162.3,113.737q-6.167,1.753-12.174,3.482t-11.847,3.433q-5.84,1.7-11.482,3.374t-11.078,3.3q-5.437,1.633-10.659,3.228t-10.226,3.149q-5,1.554-9.757,3.059t-9.253,2.959q-4.542,1.469-8.813,2.882t-8.27,2.772q-4,1.358-7.7,2.652t-7.089,2.522q-7.067,2.559-12.7,4.793-5.658,2.245-9.845,4.152-4.205,1.917-6.9,3.484a17.916,17.916,0,0,0-3.854,2.788M5.727,167c3.2-3.339,15.2-8.7,33.933-15.476,18.365-6.646,43.271-14.683,72.881-23.576,29.184-8.765,63.1-18.41,100.142-28.459,36.746-9.969,76.828-20.406,118.827-30.878s82.3-20.076,119.442-28.529C488.393,31.561,522.9,24.147,552.81,18.177c30.356-6.058,56.158-10.664,75.539-13.43,19.767-2.82,32.94-3.737,37.386-2.306,4.553,1.466-.457,5.251-13.7,10.911-13.523,5.779-35.579,13.491-64.61,22.62-29.508,9.28-66.052,19.969-107.764,31.473C437.555,79.058,390.526,91.4,340.735,103.819s-97.125,23.6-139.778,33.116c-42.257,9.432-79.574,17.157-110.03,22.828-29.962,5.579-53.106,9.137-67.814,10.4C8.712,171.393,2.453,170.418,5.727,167Z" transform="translate(-4.86 -1.769)" fill="#707070"/>
      </g>
      <g id="Elipse_7" data-name="Elipse 7" transform="translate(1369.546 234.562)">
        <path id="Caminho_36" data-name="Caminho 36" d="M692.149,98.691c3.868,14.894-2.168,29.4-16.67,42.869-14.8,13.741-38.346,26.356-69,37.127a608.369,608.369,0,0,1-112.87,26.2,1017.419,1017.419,0,0,1-144.1,9.838A1017.461,1017.461,0,0,1,205.4,204.87a608.364,608.364,0,0,1-112.87-26.188c-30.65-10.772-54.2-23.386-69-37.127C9.022,128.088,2.987,113.58,6.855,98.686,10.636,84.123,23.545,70.544,43.4,58.432A312.589,312.589,0,0,1,120.318,27.34,714.407,714.407,0,0,1,225.4,7.218a1070.921,1070.921,0,0,1,248.252,0A714.4,714.4,0,0,1,578.726,27.34a312.581,312.581,0,0,1,76.9,31.092C675.453,70.559,688.367,84.123,692.149,98.691Z" transform="translate(-5.711 0)" fill="none"/>
        <path id="Caminho_37" data-name="Caminho 37" d="M11.932,98.689a34.222,34.222,0,0,0-1.039,10.642,35.259,35.259,0,0,0,2.373,10.613,46.8,46.8,0,0,0,5.851,10.542,71.686,71.686,0,0,0,9.394,10.424Q31.2,143.4,34.3,145.856t6.615,4.875q3.515,2.42,7.42,4.785t8.205,4.677q4.26,2.288,8.9,4.516T75.1,169.1q5.019,2.165,10.386,4.251t11.081,4.091q5.715,2,11.765,3.922t12.429,3.745q6.379,1.827,13.048,3.551t13.622,3.343q7.018,1.633,14.314,3.153t14.856,2.926q7.559,1.4,15.34,2.685t15.766,2.431q16.621,2.4,33.866,4.207,17.262,1.813,35.058,3.031t36.045,1.831q18.239.612,36.82.613t36.82-.613q18.229-.612,36.046-1.831,17.783-1.217,35.058-3.031,17.233-1.81,33.866-4.207,7.972-1.149,15.767-2.431,7.774-1.279,15.34-2.685,7.546-1.4,14.853-2.926t14.315-3.153q6.944-1.615,13.625-3.343,6.663-1.723,13.046-3.551t12.432-3.745q6.046-1.917,11.762-3.922t11.081-4.091q5.368-2.086,10.386-4.251t9.66-4.392q4.637-2.226,8.9-4.516,4.287-2.306,8.2-4.677t7.421-4.785q3.5-2.414,6.614-4.875t5.792-4.946a71.843,71.843,0,0,0,9.4-10.424,46.889,46.889,0,0,0,5.848-10.542,35.332,35.332,0,0,0,2.376-10.613,34.406,34.406,0,0,0-1.041-10.642,41.9,41.9,0,0,0-4.335-10.473A58.65,58.65,0,0,0,675.242,78.1a88.751,88.751,0,0,0-10.548-9.743,135.787,135.787,0,0,0-13.508-9.346q-3.594-2.194-7.518-4.338t-8.147-4.217q-4.218-2.074-8.741-4.084-4.508-2-9.3-3.939-4.736-1.911-9.756-3.755t-10.279-3.608q-5.262-1.764-10.767-3.451t-11.213-3.284q-5.711-1.6-11.65-3.114-5.924-1.513-12.066-2.942-6.122-1.426-12.437-2.763t-12.777-2.577Q520,15.684,513.3,14.525t-13.543-2.218q-6.838-1.06-13.812-2.021T471.9,8.469q-14.7-1.781-29.745-3.118Q427.14,4.017,411.81,3.126q-15.306-.89-30.9-1.336T349.5,1.344q-15.828,0-31.412.446t-30.9,1.336q-15.322.891-30.344,2.225T227.1,8.469q-7.076.858-14.044,1.818t-13.814,2.021q-6.847,1.061-13.542,2.218t-13.227,2.41Q166,18.177,159.7,19.513t-12.441,2.763q-6.134,1.428-12.065,2.942t-11.648,3.114q-5.718,1.6-11.214,3.284t-10.766,3.451q-5.27,1.767-10.281,3.608T81.524,42.43q-4.792,1.933-9.3,3.939t-8.741,4.084q-4.23,2.079-8.146,4.217t-7.517,4.338a135.291,135.291,0,0,0-13.509,9.346A88.767,88.767,0,0,0,23.759,78.1a58.541,58.541,0,0,0-7.492,10.119,41.682,41.682,0,0,0-4.336,10.473m-5.076,0c3.782-14.565,16.692-28.145,36.558-40.253,19.5-11.884,45.773-22.4,76.9-31.094,30.7-8.577,66.287-15.432,105.059-20.125A1039.572,1039.572,0,0,1,349.5,0,1039.571,1039.571,0,0,1,473.626,7.218c38.77,4.693,74.36,11.548,105.06,20.125,31.127,8.7,57.4,19.21,76.9,31.094,19.863,12.108,32.777,25.688,36.559,40.253,3.868,14.894-2.168,29.4-16.67,42.869-14.8,13.741-38.346,26.356-69,37.129-31.127,10.942-69.4,19.923-112.87,26.2a1017.367,1017.367,0,0,1-144.1,9.854,1017.419,1017.419,0,0,1-144.107-9.854c-43.464-6.274-81.738-15.255-112.869-26.2-30.651-10.774-54.2-23.388-69-37.129C9.023,128.088,2.988,113.583,6.855,98.689Z" transform="translate(-5.707)" fill="#707070"/>
      </g>
      <g id="Elipse_8" data-name="Elipse 8" transform="translate(1425.99 116.171)">
        <path id="Caminho_38" data-name="Caminho 38" d="M576.8,433.635c-5.873,14.213-19.422,22.173-39.087,24.2-20.087,2.071-46.488-2.03-77.453-11.873a608.362,608.362,0,0,1-105.93-47.016A1017.436,1017.436,0,0,1,233.31,320.095a1017.431,1017.431,0,0,1-109.138-94.6,608.366,608.366,0,0,1-74.377-88.834C31.779,109.6,20.561,85.366,17.018,65.487c-3.477-19.483.437-34.7,12.487-44.27C41.292,11.862,59.775,8.786,82.927,11.065a312.583,312.583,0,0,1,80.128,21.447,714.407,714.407,0,0,1,96.012,47.143A1039.577,1039.577,0,0,1,362.54,148.59a1039.582,1039.582,0,0,1,94.788,80.489,714.41,714.41,0,0,1,71.793,79.3,312.583,312.583,0,0,1,42.7,71.113C580.406,401.117,582.544,419.731,576.8,433.635Z" transform="translate(-15.798 -10.346)" fill="none"/>
        <path id="Caminho_39" data-name="Caminho 39" d="M33.557,24.271a34.235,34.235,0,0,0-7.235,7.874,35.254,35.254,0,0,0-4.492,9.9,46.809,46.809,0,0,0-1.672,11.94,71.682,71.682,0,0,0,1.229,13.979q.651,3.608,1.65,7.436t2.349,7.874q1.35,4.047,3.045,8.287t3.739,8.673q2.025,4.391,4.39,8.963t5.071,9.321q2.706,4.749,5.737,9.646t6.388,9.937q3.357,5.04,7.035,10.212t7.672,10.471q3.994,5.3,8.283,10.689t8.868,10.868q4.622,5.527,9.534,11.133t10.1,11.277q5.191,5.67,10.636,11.376t11.129,11.43q11.832,11.916,24.515,23.741t26.174,23.519q13.486,11.686,27.686,23.155t29.036,22.649Q249.256,329.8,264.2,340.293q14.926,10.482,29.889,20.231,14.935,9.73,29.823,18.678,14.852,8.926,29.578,17.021,7.061,3.882,14.055,7.547t13.867,7.088q6.873,3.423,13.625,6.6t13.33,6.1q6.516,2.887,12.891,5.529t12.559,5.016Q440,436.477,446,438.591q5.977,2.108,11.751,3.948t11.315,3.4q5.536,1.563,10.853,2.856,5.3,1.289,10.361,2.3,5.041,1.013,9.822,1.749,4.82.742,9.371,1.2t8.8.644q4.256.182,8.218.087t7.6-.463a71.594,71.594,0,0,0,13.772-2.672,46.815,46.815,0,0,0,11.021-4.9,35.239,35.239,0,0,0,8.279-7.048,34.216,34.216,0,0,0,5.579-9.125,41.641,41.641,0,0,0,2.838-10.974,58.623,58.623,0,0,0,.107-12.59,88.64,88.64,0,0,0-2.558-14.129,135.054,135.054,0,0,0-5.168-15.6q-1.546-3.914-3.391-7.988t-3.97-8.27q-2.117-4.2-4.523-8.522-2.391-4.315-5.061-8.745-2.627-4.377-5.533-8.872-2.886-4.483-6.036-9.069t-6.523-9.235q-3.373-4.65-6.98-9.371t-7.426-9.5q-3.823-4.776-7.868-9.611-4.028-4.824-8.269-9.694t-8.655-9.747q-4.454-4.925-9.112-9.885t-9.482-9.921q-4.82-4.962-9.817-9.928-4.98-4.958-10.122-9.9-10.668-10.269-21.876-20.391-11.189-10.1-22.9-20.038-11.689-9.923-23.873-19.662t-24.818-19.261q-12.641-9.525-25.355-18.548T310.9,113.6q-12.773-8.51-25.573-16.484T259.695,81.709q-6.167-3.573-12.31-7t-12.248-6.7q-6.107-3.273-12.15-6.378T210.972,55.6q-5.915-2.9-11.755-5.631t-11.6-5.28q-5.758-2.551-11.406-4.911T165.036,35.25q-5.53-2.163-10.932-4.126T143.43,27.4q-5.272-1.76-10.382-3.306t-10.053-2.874q-4.99-1.34-9.8-2.453t-9.439-2q-4.629-.886-9.043-1.535T86.1,14.175a135.327,135.327,0,0,0-16.414-.666A88.817,88.817,0,0,0,55.4,14.943a58.592,58.592,0,0,0-12.073,3.573,41.7,41.7,0,0,0-9.766,5.755M29.5,21.216C41.289,11.86,59.772,8.784,82.924,11.069c22.723,2.243,50.035,9.66,80.129,21.448,29.68,11.627,62.226,27.568,96.015,47.154a1039.632,1039.632,0,0,1,103.476,68.937,1039.233,1039.233,0,0,1,94.786,80.466c28.143,27.082,52.437,53.973,71.793,79.3,19.63,25.679,34.285,49.889,42.706,71.113,8.579,21.626,10.716,40.24,4.97,54.149-5.873,14.222-19.422,22.174-39.112,24.2-20.082,2.071-46.488-2.03-77.448-11.872-31.449-10-67.421-25.858-105.908-47A1017.437,1017.437,0,0,1,233.311,320.1,1017.414,1017.414,0,0,1,124.153,225.51c-30.936-31.167-56.1-61.374-74.376-88.848-18-27.051-29.215-51.3-32.76-71.178C13.541,46,17.451,30.783,29.5,21.216Z" transform="translate(-15.8 -10.342)" fill="#707070"/>
      </g>
      <g id="Elipse_9" data-name="Elipse 9" transform="translate(1419.494 145.191)">
        <path id="Caminho_40" data-name="Caminho 40" d="M595.694,27.708c10.8,10.965,12.883,26.508,7.178,45.356-5.822,19.229-19.741,41.833-40.686,66.361a599.338,599.338,0,0,1-83.879,78.681,1002.161,1002.161,0,0,1-118.936,80.042,1002.959,1002.959,0,0,1-128.819,63A600.875,600.875,0,0,1,120.4,394.5c-31.752,5.893-58.326,6.67-77.94,2.127-19.224-4.457-31.686-14.005-35.833-28.813-4.061-14.477.228-32.63,11.234-52.965a308.355,308.355,0,0,1,50.508-65.062,703.678,703.678,0,0,1,80.2-69.544A1055.175,1055.175,0,0,1,361.965,57.028,705.2,705.2,0,0,1,462.388,22.3a309.6,309.6,0,0,1,81.727-11.269C567.227,11.641,585.136,16.981,595.694,27.708Z" transform="translate(-5.108 -10.967)" fill="none"/>
        <path id="Caminho_41" data-name="Caminho 41" d="M11.017,365.322a34.448,34.448,0,0,0,4.446,9.722,35.537,35.537,0,0,0,7.365,8,47.027,47.027,0,0,0,10.319,6.216,71.71,71.71,0,0,0,13.306,4.356q3.563.818,7.461,1.4t8.132.935q4.235.349,8.779.457t9.4-.026q4.811-.135,9.916-.511t10.507-.993q5.4-.619,11.061-1.478t11.578-1.96q5.917-1.1,12.079-2.446t12.562-2.928q6.4-1.585,13-3.4t13.385-3.869q6.851-2.07,13.884-4.376t14.236-4.841q7.2-2.536,14.532-5.29t14.77-5.72q15.485-6.175,31.216-13.166,15.746-7,31.65-14.774t31.9-16.3q15.983-8.52,31.952-17.739t31.336-18.8q15.359-9.574,30.06-19.469,14.674-9.876,28.61-20.017,13.9-10.116,27-20.443,6.278-4.952,12.333-9.926,6.038-4.966,11.838-9.935t11.3-9.9q5.505-4.933,10.721-9.831,5.155-4.842,10.036-9.651,4.858-4.8,9.432-9.547t8.8-9.407q4.241-4.658,8.147-9.231t7.472-9.039q3.564-4.467,6.8-8.833t6.1-8.594q2.871-4.227,5.386-8.324,2.536-4.124,4.711-8.118T592.5,89.7q1.8-3.828,3.244-7.5t2.5-7.153a71.492,71.492,0,0,0,2.848-13.681,46.89,46.89,0,0,0-.259-12.025,35.491,35.491,0,0,0-3.284-10.36,34.63,34.63,0,0,0-6.234-8.691,41.95,41.95,0,0,0-8.985-6.909A58.59,58.59,0,0,0,570.8,18.346a88.54,88.54,0,0,0-13.955-3.194,134.769,134.769,0,0,0-16.3-1.381q-4.188-.116-8.64-.022t-9.117.395q-4.668.3-9.564.806-4.881.5-9.975,1.21-5.033.7-10.269,1.594t-10.65,1.981q-5.406,1.084-10.985,2.358t-11.286,2.724q-5.707,1.451-11.574,3.087t-11.846,3.442q-5.98,1.806-12.079,3.783t-12.274,4.112q-6.234,2.154-12.577,4.478t-12.752,4.8Q380.554,51,374.076,53.628t-12.982,5.4q-13.528,5.753-27.127,12.062-13.574,6.3-27.195,13.132-13.6,6.825-27.225,14.176t-27.22,15.2q-13.6,7.853-26.772,15.972t-25.886,16.487q-12.721,8.373-24.962,16.981t-24,17.456q-5.651,4.253-11.159,8.541t-10.86,8.6q-5.353,4.315-10.527,8.638T108,214.923q-4.939,4.285-9.689,8.569t-9.307,8.564q-4.556,4.279-8.895,8.532t-8.449,8.473q-4.113,4.222-7.992,8.406T56.147,265.8q-3.643,4.144-7.027,8.223t-6.5,8.091q-3.15,4.05-6.022,8.025t-5.465,7.871q-2.593,3.9-4.887,7.691t-4.286,7.483a133.907,133.907,0,0,0-6.924,14.792,88.077,88.077,0,0,0-4.179,13.664,58.371,58.371,0,0,0-1.364,12.473,41.781,41.781,0,0,0,1.527,11.213m-4.4,2.538c-4.056-14.477.229-32.631,11.232-52.965,10.8-19.956,28.111-42.092,50.506-65.064,22.088-22.656,49.239-46.247,80.213-69.549a1055.184,1055.184,0,0,1,213.4-123.207c35.683-15.182,69.713-26.914,100.406-34.731,31.12-7.926,58.983-11.871,81.7-11.268,23.153.615,41.062,5.955,51.62,16.678,10.8,10.965,12.883,26.507,7.173,45.357-5.822,19.23-19.741,41.831-40.686,66.363-21.269,24.916-49.666,51.68-83.879,78.678A1002.164,1002.164,0,0,1,359.379,298.2a1003,1003,0,0,1-128.819,63c-40.509,16.143-77.916,27.369-110.166,33.354-31.753,5.892-58.328,6.669-77.939,2.125C23.232,392.216,10.767,382.663,6.62,367.86Z" transform="translate(-5.117 -11.015)" fill="#707070"/>
      </g>
      <g id="Elipse_10" data-name="Elipse 10" transform="translate(1587.277 237.735)" fill="#707070" stroke="#707070" stroke-width="1">
        <circle cx="5.076" cy="5.076" r="5.076" stroke="none"/>
        <circle cx="5.076" cy="5.076" r="4.576" fill="none"/>
      </g>
      <g id="Elipse_11" data-name="Elipse 11" transform="translate(1587.277 237.735)" fill="#f2b705" stroke="#f2b705" stroke-width="1">
        <circle cx="5.076" cy="5.076" r="5.076" stroke="none"/>
        <circle cx="5.076" cy="5.076" r="4.576" fill="none"/>
      </g>
      <g id="Elipse_12" data-name="Elipse 12" transform="translate(1678.649 232.658)" fill="#f2b705" stroke="#f2b705" stroke-width="1">
        <circle cx="5.076" cy="5.076" r="5.076" stroke="none"/>
        <circle cx="5.076" cy="5.076" r="4.576" fill="none"/>
      </g>
      <g id="Elipse_13" data-name="Elipse 13" transform="translate(1739.564 232.658)" fill="#f2b705" stroke="#f2b705" stroke-width="1">
        <circle cx="5.076" cy="5.076" r="5.076" stroke="none"/>
        <circle cx="5.076" cy="5.076" r="4.576" fill="none"/>
      </g>
      <g id="Elipse_14" data-name="Elipse 14" transform="translate(1749.716 197.125)" fill="#f2b705" stroke="#f2b705" stroke-width="1">
        <circle cx="5.076" cy="5.076" r="5.076" stroke="none"/>
        <circle cx="5.076" cy="5.076" r="4.576" fill="none"/>
      </g>
      <g id="Elipse_15" data-name="Elipse 15" transform="translate(1739.564 161.591)" fill="#f2b705" stroke="#f2b705" stroke-width="1">
        <circle cx="5.076" cy="5.076" r="5.076" stroke="none"/>
        <circle cx="5.076" cy="5.076" r="4.576" fill="none"/>
      </g>
      <g id="Elipse_16" data-name="Elipse 16" transform="translate(1577.125 136.21)" fill="#f2b705" stroke="#f2b705" stroke-width="1">
        <circle cx="5.076" cy="5.076" r="5.076" stroke="none"/>
        <circle cx="5.076" cy="5.076" r="4.576" fill="none"/>
      </g>
      <g id="Elipse_17" data-name="Elipse 17" transform="translate(1495.905 115.905)" fill="#f2b705" stroke="#f2b705" stroke-width="1">
        <circle cx="5.076" cy="5.076" r="5.076" stroke="none"/>
        <circle cx="5.076" cy="5.076" r="4.576" fill="none"/>
      </g>
      <g id="Elipse_18" data-name="Elipse 18" transform="translate(1475.6 263.116)" fill="#f2b705" stroke="#f2b705" stroke-width="1">
        <circle cx="5.076" cy="5.076" r="5.076" stroke="none"/>
        <circle cx="5.076" cy="5.076" r="4.576" fill="none"/>
      </g>
      <g id="Elipse_19" data-name="Elipse 19" transform="translate(1531.439 329.106)" fill="#f2b705" stroke="#f2b705" stroke-width="1">
        <circle cx="5.076" cy="5.076" r="5.076" stroke="none"/>
        <circle cx="5.076" cy="5.076" r="4.576" fill="none"/>
      </g>
      <g id="Elipse_20" data-name="Elipse 20" transform="translate(1455.296 405.25)" fill="#f2b705" stroke="#f2b705" stroke-width="1">
        <circle cx="5.076" cy="5.076" r="5.076" stroke="none"/>
        <circle cx="5.076" cy="5.076" r="4.576" fill="none"/>
      </g>
      <g id="Elipse_21" data-name="Elipse 21" transform="translate(1490.829 369.716)" fill="#f2b705" stroke="#f2b705" stroke-width="1">
        <circle cx="5.076" cy="5.076" r="5.076" stroke="none"/>
        <circle cx="5.076" cy="5.076" r="4.576" fill="none"/>
      </g>
      <g id="Elipse_22" data-name="Elipse 22" transform="translate(1495.905 384.945)" fill="#f2b705" stroke="#f2b705" stroke-width="1">
        <circle cx="5.076" cy="5.076" r="5.076" stroke="none"/>
        <circle cx="5.076" cy="5.076" r="4.576" fill="none"/>
      </g>
      <g id="Elipse_23" data-name="Elipse 23" transform="translate(1506.058 420.478)" fill="#f2b705" stroke="#f2b705" stroke-width="1">
        <circle cx="5.076" cy="5.076" r="5.076" stroke="none"/>
        <circle cx="5.076" cy="5.076" r="4.576" fill="none"/>
      </g>
      <g id="Elipse_24" data-name="Elipse 24" transform="translate(1480.677 420.478)" fill="#f2b705" stroke="#f2b705" stroke-width="1">
        <circle cx="5.076" cy="5.076" r="5.076" stroke="none"/>
        <circle cx="5.076" cy="5.076" r="4.576" fill="none"/>
      </g>
      <g id="Elipse_25" data-name="Elipse 25" transform="translate(1440.067 425.555)" fill="#f2b705" stroke="#f2b705" stroke-width="1">
        <circle cx="5.076" cy="5.076" r="5.076" stroke="none"/>
        <circle cx="5.076" cy="5.076" r="4.576" fill="none"/>
      </g>
      <g id="Elipse_26" data-name="Elipse 26" transform="translate(1551.744 516.926)" fill="#f2b705" stroke="#f2b705" stroke-width="1">
        <circle cx="5.076" cy="5.076" r="5.076" stroke="none"/>
        <circle cx="5.076" cy="5.076" r="4.576" fill="none"/>
      </g>
      <g id="Elipse_27" data-name="Elipse 27" transform="translate(1582.201 435.707)" fill="#f2b705" stroke="#f2b705" stroke-width="1">
        <circle cx="5.076" cy="5.076" r="5.076" stroke="none"/>
        <circle cx="5.076" cy="5.076" r="4.576" fill="none"/>
      </g>
      <g id="Elipse_28" data-name="Elipse 28" transform="translate(1602.506 390.021)" fill="#f2b705" stroke="#f2b705" stroke-width="1">
        <circle cx="5.076" cy="5.076" r="5.076" stroke="none"/>
        <circle cx="5.076" cy="5.076" r="4.576" fill="none"/>
      </g>
      <g id="Elipse_29" data-name="Elipse 29" transform="translate(1632.963 415.402)" fill="#f2b705" stroke="#f2b705" stroke-width="1">
        <circle cx="5.076" cy="5.076" r="5.076" stroke="none"/>
        <circle cx="5.076" cy="5.076" r="4.576" fill="none"/>
      </g>
      <g id="Elipse_30" data-name="Elipse 30" transform="translate(1622.811 384.945)" fill="#f2b705" stroke="#f2b705" stroke-width="1">
        <circle cx="5.076" cy="5.076" r="5.076" stroke="none"/>
        <circle cx="5.076" cy="5.076" r="4.576" fill="none"/>
      </g>
      <g id="Elipse_31" data-name="Elipse 31" transform="translate(1572.049 364.64)" fill="#f2b705" stroke="#f2b705" stroke-width="1">
        <circle cx="5.076" cy="5.076" r="5.076" stroke="none"/>
        <circle cx="5.076" cy="5.076" r="4.576" fill="none"/>
      </g>
      <g id="Elipse_32" data-name="Elipse 32" transform="translate(1643.116 440.783)" fill="#f2b705" stroke="#f2b705" stroke-width="1">
        <circle cx="5.076" cy="5.076" r="5.076" stroke="none"/>
        <circle cx="5.076" cy="5.076" r="4.576" fill="none"/>
      </g>
      <g id="Elipse_33" data-name="Elipse 33" transform="translate(1658.344 481.393)" fill="#f2b705" stroke="#f2b705" stroke-width="1">
        <circle cx="5.076" cy="5.076" r="5.076" stroke="none"/>
        <circle cx="5.076" cy="5.076" r="4.576" fill="none"/>
      </g>
      <g id="Elipse_34" data-name="Elipse 34" transform="translate(1673.573 522.003)" fill="#f2b705" stroke="#f2b705" stroke-width="1">
        <circle cx="5.076" cy="5.076" r="5.076" stroke="none"/>
        <circle cx="5.076" cy="5.076" r="4.576" fill="none"/>
      </g>
      <g id="Elipse_35" data-name="Elipse 35" transform="translate(1607.582 593.07)" fill="#f2b705" stroke="#f2b705" stroke-width="1">
        <circle cx="5.076" cy="5.076" r="5.076" stroke="none"/>
        <circle cx="5.076" cy="5.076" r="4.576" fill="none"/>
      </g>
      <g id="Elipse_36" data-name="Elipse 36" transform="translate(1709.106 471.24)" fill="#f2b705" stroke="#f2b705" stroke-width="1">
        <circle cx="5.076" cy="5.076" r="5.076" stroke="none"/>
        <circle cx="5.076" cy="5.076" r="4.576" fill="none"/>
      </g>
      <g id="Elipse_37" data-name="Elipse 37" transform="translate(1724.335 450.936)" fill="#f2b705" stroke="#f2b705" stroke-width="1">
        <circle cx="5.076" cy="5.076" r="5.076" stroke="none"/>
        <circle cx="5.076" cy="5.076" r="4.576" fill="none"/>
      </g>
      <g id="Elipse_38" data-name="Elipse 38" transform="translate(1668.497 440.783)" fill="#f2b705" stroke="#f2b705" stroke-width="1">
        <circle cx="5.076" cy="5.076" r="5.076" stroke="none"/>
        <circle cx="5.076" cy="5.076" r="4.576" fill="none"/>
      </g>
      <g id="Elipse_39" data-name="Elipse 39" transform="translate(1698.954 461.088)" fill="#f2b705" stroke="#f2b705" stroke-width="1">
        <circle cx="5.076" cy="5.076" r="5.076" stroke="none"/>
        <circle cx="5.076" cy="5.076" r="4.576" fill="none"/>
      </g>
      <g id="Elipse_40" data-name="Elipse 40" transform="translate(1739.564 440.783)" fill="#f2b705" stroke="#f2b705" stroke-width="1">
        <circle cx="5.076" cy="5.076" r="5.076" stroke="none"/>
        <circle cx="5.076" cy="5.076" r="4.576" fill="none"/>
      </g>
      <g id="Elipse_41" data-name="Elipse 41" transform="translate(1815.707 435.707)" fill="#f2b705" stroke="#f2b705" stroke-width="1">
        <circle cx="5.076" cy="5.076" r="5.076" stroke="none"/>
        <circle cx="5.076" cy="5.076" r="4.576" fill="none"/>
      </g>
      <g id="Elipse_42" data-name="Elipse 42" transform="translate(1810.631 400.173)" fill="#f2b705" stroke="#f2b705" stroke-width="1">
        <circle cx="5.076" cy="5.076" r="5.076" stroke="none"/>
        <circle cx="5.076" cy="5.076" r="4.576" fill="none"/>
      </g>
      <g id="Elipse_43" data-name="Elipse 43" transform="translate(1800.478 344.335)" fill="#f2b705" stroke="#f2b705" stroke-width="1">
        <circle cx="5.076" cy="5.076" r="5.076" stroke="none"/>
        <circle cx="5.076" cy="5.076" r="4.576" fill="none"/>
      </g>
      <g id="Elipse_44" data-name="Elipse 44" transform="translate(1795.402 334.183)" fill="#f2b705" stroke="#f2b705" stroke-width="1">
        <circle cx="5.076" cy="5.076" r="5.076" stroke="none"/>
        <circle cx="5.076" cy="5.076" r="4.576" fill="none"/>
      </g>
      <g id="Elipse_45" data-name="Elipse 45" transform="translate(1785.25 344.335)" fill="#f2b705" stroke="#f2b705" stroke-width="1">
        <circle cx="5.076" cy="5.076" r="5.076" stroke="none"/>
        <circle cx="5.076" cy="5.076" r="4.576" fill="none"/>
      </g>
      <g id="Elipse_46" data-name="Elipse 46" transform="translate(1881.698 349.411)" fill="#f2b705" stroke="#f2b705" stroke-width="1">
        <circle cx="5.076" cy="5.076" r="5.076" stroke="none"/>
        <circle cx="5.076" cy="5.076" r="4.576" fill="none"/>
      </g>
      <g id="Elipse_47" data-name="Elipse 47" transform="translate(1912.155 379.869)" fill="#f2b705" stroke="#f2b705" stroke-width="1">
        <circle cx="5.076" cy="5.076" r="5.076" stroke="none"/>
        <circle cx="5.076" cy="5.076" r="4.576" fill="none"/>
      </g>
      <g id="Elipse_48" data-name="Elipse 48" transform="translate(1912.155 420.478)" fill="#f2b705" stroke="#f2b705" stroke-width="1">
        <circle cx="5.076" cy="5.076" r="5.076" stroke="none"/>
        <circle cx="5.076" cy="5.076" r="4.576" fill="none"/>
      </g>
      <g id="Elipse_49" data-name="Elipse 49" transform="translate(1937.536 415.402)" fill="#f2b705" stroke="#f2b705" stroke-width="1">
        <circle cx="5.076" cy="5.076" r="5.076" stroke="none"/>
        <circle cx="5.076" cy="5.076" r="4.576" fill="none"/>
      </g>
      <g id="Elipse_50" data-name="Elipse 50" transform="translate(1886.774 552.46)" fill="#f2b705" stroke="#f2b705" stroke-width="1">
        <circle cx="5.076" cy="5.076" r="5.076" stroke="none"/>
        <circle cx="5.076" cy="5.076" r="4.576" fill="none"/>
      </g>
      <g id="Elipse_51" data-name="Elipse 51" transform="translate(1825.859 527.079)" fill="#f2b705" stroke="#f2b705" stroke-width="1">
        <circle cx="5.076" cy="5.076" r="5.076" stroke="none"/>
        <circle cx="5.076" cy="5.076" r="4.576" fill="none"/>
      </g>
      <g id="Elipse_52" data-name="Elipse 52" transform="translate(1907.079 329.106)" fill="#f2b705" stroke="#f2b705" stroke-width="1">
        <circle cx="5.076" cy="5.076" r="5.076" stroke="none"/>
        <circle cx="5.076" cy="5.076" r="4.576" fill="none"/>
      </g>
      <g id="Elipse_53" data-name="Elipse 53" transform="translate(1932.46 303.725)" fill="#f2b705" stroke="#f2b705" stroke-width="1">
        <circle cx="5.076" cy="5.076" r="5.076" stroke="none"/>
        <circle cx="5.076" cy="5.076" r="4.576" fill="none"/>
      </g>
      <g id="Elipse_54" data-name="Elipse 54" transform="translate(1902.003 313.878)" fill="#f2b705" stroke="#f2b705" stroke-width="1">
        <circle cx="5.076" cy="5.076" r="5.076" stroke="none"/>
        <circle cx="5.076" cy="5.076" r="4.576" fill="none"/>
      </g>
      <g id="Elipse_55" data-name="Elipse 55" transform="translate(1967.993 268.192)" fill="#f2b705" stroke="#f2b705" stroke-width="1">
        <circle cx="5.076" cy="5.076" r="5.076" stroke="none"/>
        <circle cx="5.076" cy="5.076" r="4.576" fill="none"/>
      </g>
      <g id="Elipse_56" data-name="Elipse 56" transform="translate(1896.926 283.42)" fill="#f2b705" stroke="#f2b705" stroke-width="1">
        <circle cx="5.076" cy="5.076" r="5.076" stroke="none"/>
        <circle cx="5.076" cy="5.076" r="4.576" fill="none"/>
      </g>
      <g id="Elipse_57" data-name="Elipse 57" transform="translate(1815.707 288.497)" fill="#f2b705" stroke="#f2b705" stroke-width="1">
        <circle cx="5.076" cy="5.076" r="5.076" stroke="none"/>
        <circle cx="5.076" cy="5.076" r="4.576" fill="none"/>
      </g>
      <g id="Elipse_58" data-name="Elipse 58" transform="translate(1830.936 298.649)" fill="#f2b705" stroke="#f2b705" stroke-width="1">
        <circle cx="5.076" cy="5.076" r="5.076" stroke="none"/>
        <circle cx="5.076" cy="5.076" r="4.576" fill="none"/>
      </g>
      <g id="Elipse_59" data-name="Elipse 59" transform="translate(1810.631 303.725)" fill="#f2b705" stroke="#f2b705" stroke-width="1">
        <circle cx="5.076" cy="5.076" r="5.076" stroke="none"/>
        <circle cx="5.076" cy="5.076" r="4.576" fill="none"/>
      </g>
      <g id="Elipse_60" data-name="Elipse 60" transform="translate(1861.393 329.106)" fill="#f2b705" stroke="#f2b705" stroke-width="1">
        <circle cx="5.076" cy="5.076" r="5.076" stroke="none"/>
        <circle cx="5.076" cy="5.076" r="4.576" fill="none"/>
      </g>
      <g id="Elipse_61" data-name="Elipse 61" transform="translate(1770.021 252.963)" fill="#f2b705" stroke="#f2b705" stroke-width="1">
        <circle cx="5.076" cy="5.076" r="5.076" stroke="none"/>
        <circle cx="5.076" cy="5.076" r="4.576" fill="none"/>
      </g>
      <g id="Elipse_62" data-name="Elipse 62" transform="translate(1790.326 308.802)" fill="#f2b705" stroke="#f2b705" stroke-width="1">
        <circle cx="5.076" cy="5.076" r="5.076" stroke="none"/>
        <circle cx="5.076" cy="5.076" r="4.576" fill="none"/>
      </g>
      <g id="Elipse_63" data-name="Elipse 63" transform="translate(1841.088 237.735)" fill="#f2b705" stroke="#f2b705" stroke-width="1">
        <circle cx="5.076" cy="5.076" r="5.076" stroke="none"/>
        <circle cx="5.076" cy="5.076" r="4.576" fill="none"/>
      </g>
      <g id="Elipse_64" data-name="Elipse 64" transform="translate(1886.774 242.811)" fill="#f2b705" stroke="#f2b705" stroke-width="1">
        <circle cx="5.076" cy="5.076" r="5.076" stroke="none"/>
        <circle cx="5.076" cy="5.076" r="4.576" fill="none"/>
      </g>
      <g id="Elipse_65" data-name="Elipse 65" transform="translate(1861.393 186.972)" fill="#f2b705" stroke="#f2b705" stroke-width="1">
        <circle cx="5.076" cy="5.076" r="5.076" stroke="none"/>
        <circle cx="5.076" cy="5.076" r="4.576" fill="none"/>
      </g>
      <g id="Elipse_66" data-name="Elipse 66" transform="translate(1846.164 156.515)" fill="#f2b705" stroke="#f2b705" stroke-width="1">
        <circle cx="5.076" cy="5.076" r="5.076" stroke="none"/>
        <circle cx="5.076" cy="5.076" r="4.576" fill="none"/>
      </g>
      <g id="Elipse_67" data-name="Elipse 67" transform="translate(1876.621 151.439)" fill="#f2b705" stroke="#f2b705" stroke-width="1">
        <circle cx="5.076" cy="5.076" r="5.076" stroke="none"/>
        <circle cx="5.076" cy="5.076" r="4.576" fill="none"/>
      </g>
      <g id="Elipse_68" data-name="Elipse 68" transform="translate(1800.478 85.448)" fill="#f2b705" stroke="#f2b705" stroke-width="1">
        <circle cx="5.076" cy="5.076" r="5.076" stroke="none"/>
        <circle cx="5.076" cy="5.076" r="4.576" fill="none"/>
      </g>
      <g id="Elipse_69" data-name="Elipse 69" transform="translate(1704.03 207.277)" fill="#f2b705" stroke="#f2b705" stroke-width="1">
        <circle cx="5.076" cy="5.076" r="5.076" stroke="none"/>
        <circle cx="5.076" cy="5.076" r="4.576" fill="none"/>
      </g>
      <g id="Elipse_70" data-name="Elipse 70" transform="translate(1714.183 212.353)" fill="#f2b705" stroke="#f2b705" stroke-width="1">
        <circle cx="5.076" cy="5.076" r="5.076" stroke="none"/>
        <circle cx="5.076" cy="5.076" r="4.576" fill="none"/>
      </g>
      <g id="Elipse_71" data-name="Elipse 71" transform="translate(1693.878 222.506)" fill="#f2b705" stroke="#f2b705" stroke-width="1">
        <circle cx="5.076" cy="5.076" r="5.076" stroke="none"/>
        <circle cx="5.076" cy="5.076" r="4.576" fill="none"/>
      </g>
      <g id="Elipse_72" data-name="Elipse 72" transform="translate(1693.878 232.658)" fill="#f2b705" stroke="#f2b705" stroke-width="1">
        <circle cx="5.076" cy="5.076" r="5.076" stroke="none"/>
        <circle cx="5.076" cy="5.076" r="4.576" fill="none"/>
      </g>
      <g id="Elipse_73" data-name="Elipse 73" transform="translate(1764.945 232.658)" fill="#f2b705" stroke="#f2b705" stroke-width="1">
        <circle cx="5.076" cy="5.076" r="5.076" stroke="none"/>
        <circle cx="5.076" cy="5.076" r="4.576" fill="none"/>
      </g>
      <g id="Elipse_74" data-name="Elipse 74" transform="translate(1617.734 354.487)" fill="#f2b705" stroke="#f2b705" stroke-width="1">
        <circle cx="5.076" cy="5.076" r="5.076" stroke="none"/>
        <circle cx="5.076" cy="5.076" r="4.576" fill="none"/>
      </g>
      <g id="Elipse_75" data-name="Elipse 75" transform="translate(2003.527 283.42)" fill="#f2b705" stroke="#f2b705" stroke-width="1">
        <circle cx="5.076" cy="5.076" r="5.076" stroke="none"/>
        <circle cx="5.076" cy="5.076" r="4.576" fill="none"/>
      </g>
      <g id="Elipse_76" data-name="Elipse 76" transform="translate(1978.146 273.268)" fill="#f2b705" stroke="#f2b705" stroke-width="1">
        <circle cx="5.076" cy="5.076" r="5.076" stroke="none"/>
        <circle cx="5.076" cy="5.076" r="4.576" fill="none"/>
      </g>
      <g id="Elipse_77" data-name="Elipse 77" transform="translate(1597.43 283.42)" fill="#f2b705" stroke="#f2b705" stroke-width="1">
        <circle cx="5.076" cy="5.076" r="5.076" stroke="none"/>
        <circle cx="5.076" cy="5.076" r="4.576" fill="none"/>
      </g>
      <g id="Elipse_72-2" data-name="Elipse 72" transform="matrix(0.966, 0.259, -0.259, 0.966, 1686.271, 301.961)" fill="#f2b705" stroke="#f2b705" stroke-width="1">
        <circle cx="25.115" cy="25.115" r="25.115" stroke="none"/>
        <circle cx="25.115" cy="25.115" r="24.615" fill="none"/>
      </g>
    </g>
    <g id="Grupo_16" data-name="Grupo 16" transform="translate(-130 41)">
      <g id="Grupo_9" data-name="Grupo 9" transform="translate(1511.786 -1023)">
        <g id="Ret창ngulo_7" data-name="Ret창ngulo 7" transform="translate(1743 -21)" fill="rgba(0,0,0,0)" stroke="#707070" stroke-width="1">
          <rect width="200" height="107" rx="6" stroke="none"/>
          <rect x="0.5" y="0.5" width="199" height="106" rx="5.5" fill="none"/>
        </g>
        <g id="Ret창ngulo_8" data-name="Ret창ngulo 8" transform="translate(1748 -15)" fill="rgba(0,0,0,0)" stroke="#707070" stroke-width="1">
          <rect width="190" height="94" stroke="none"/>
          <rect x="0.5" y="0.5" width="189" height="93" fill="none"/>
        </g>
        <g id="Caminho_27" data-name="Caminho 27" transform="translate(1819.129 85.581)">
          <path id="Caminho_42" data-name="Caminho 42" d="M24.108,0h11.5l12.6,18.609H0L14.108,0Z" fill="#707070" stroke="#707070" stroke-width="1"/>
          <path id="Caminho_43" data-name="Caminho 43" d="M14.528.846,1.7,17.763H46.62L35.159.846H14.528M14.107,0h21.5L48.215,18.609H0Z" fill="#707070" stroke="#707070" stroke-width="1"/>
        </g>
      </g>
      <g id="Elipse_79" data-name="Elipse 79" transform="translate(3226 -1118)" fill="none" stroke="#707070" stroke-width="1">
        <circle cx="128.5" cy="128.5" r="128.5" stroke="none"/>
        <circle cx="128.5" cy="128.5" r="128" fill="none"/>
      </g>
    </g>
    <g id="Grupo_10" data-name="Grupo 10" transform="translate(-30 45)">
      <g id="Elipse_80" data-name="Elipse 80" transform="translate(3712 -861)" fill="none" stroke="#707070" stroke-width="1">
        <circle cx="128.5" cy="128.5" r="128.5" stroke="none"/>
        <circle cx="128.5" cy="128.5" r="128" fill="none"/>
      </g>
      <g id="Grupo_6" data-name="Grupo 6" transform="translate(2537.95 -661.796)">
        <g id="Caminho_23" data-name="Caminho 23" transform="translate(1217.703 -131.333)">
          <path id="Caminho_44" data-name="Caminho 44" d="M7.314,0H162.38a7.158,7.158,0,0,1,7.314,6.99v76.88H0V6.99A7.158,7.158,0,0,1,7.314,0Z" transform="translate(0 0.001)" fill="none"/>
          <path id="Caminho_45" data-name="Caminho 45" d="M7.314,1.463A5.7,5.7,0,0,0,1.463,6.989V82.407H168.232V6.989a5.7,5.7,0,0,0-5.852-5.526H7.314M7.314,0H162.38a7.158,7.158,0,0,1,7.314,6.989V83.87H0V6.989A7.157,7.157,0,0,1,7.314,0Z" transform="translate(0 0.002)" fill="#707070"/>
        </g>
        <g id="Caminho_24" data-name="Caminho 24" transform="translate(1206 -47.461)">
          <path id="Caminho_46" data-name="Caminho 46" d="M3.7,0H173.4l11.7,37.385H-8Z" transform="translate(8)" fill="#707070" stroke="#707070" stroke-width="1"/>
          <path id="Caminho_47" data-name="Caminho 47" d="M4.778,1.463-6.009,35.922H183.11L172.323,1.463H4.778M3.7,0H173.4l11.7,37.385H-8Z" transform="translate(8 0)" fill="#707070" stroke="#707070" stroke-width="1"/>
        </g>
        <g id="Ret창ngulo_5" data-name="Ret창ngulo 5" transform="translate(1222.092 -126.457)" fill="none" stroke="#707070" stroke-width="1">
          <rect width="160.917" height="68.756" stroke="none"/>
          <rect x="0.5" y="0.5" width="159.917" height="67.756" fill="none"/>
        </g>
      </g>
    </g>
    <g id="Grupo_12" data-name="Grupo 12" transform="translate(-516 461)">
      <g id="Grupo_7" data-name="Grupo 7" transform="translate(2633.8 -447)">
        <g id="Ret창ngulo_6" data-name="Ret창ngulo 6" transform="translate(1572 -61)" fill="none" stroke="#707070" stroke-width="2">
          <rect width="141" height="81" stroke="none"/>
          <rect x="1" y="1" width="139" height="79" fill="none"/>
        </g>
        <line id="Linha_1" data-name="Linha 1" x2="70.301" y2="36.748" transform="translate(1572.799 -60.201)" fill="none" stroke="#707070" stroke-width="2"/>
        <line id="Linha_2" data-name="Linha 2" y1="36.748" x2="70.301" transform="translate(1643.1 -60.201)" fill="none" stroke="#707070" stroke-width="2"/>
      </g>
      <g id="Elipse_82" data-name="Elipse 82" transform="translate(4148 -596)" fill="none" stroke="#707070" stroke-width="1">
        <circle cx="128.5" cy="128.5" r="128.5" stroke="none"/>
        <circle cx="128.5" cy="128.5" r="128" fill="none"/>
      </g>
    </g>
    <g id="Grupo_14" data-name="Grupo 14" transform="translate(-1389 496)">
      <g id="Elipse_83" data-name="Elipse 83" transform="translate(4398 -511)" fill="none" stroke="#707070" stroke-width="1">
        <circle cx="128.5" cy="128.5" r="128.5" stroke="none"/>
        <circle cx="128.5" cy="128.5" r="128" fill="none"/>
      </g>
      <g id="Grupo_8" data-name="Grupo 8" transform="translate(2685 -408)">
        <g id="Caminho_25" data-name="Caminho 25" transform="translate(1778 -63)">
          <path id="Caminho_48" data-name="Caminho 48" d="M0,0H108.021l9.19,9.235L128,20.415V177H0Z" fill="none" stroke="#707070" stroke-width="1"/>
          <path id="Caminho_49" data-name="Caminho 49" d="M1,1V176H127V20.819L116.5,9.935,107.605,1H1M0,0H108.021l9.19,9.235L128,20.415V177H0Z" fill="#707070" stroke="#707070" stroke-width="1"/>
        </g>
        <line id="Linha_3" data-name="Linha 3" y2="20" transform="translate(1885.5 -62.5)" fill="none" stroke="#707070" stroke-width="2"/>
        <path id="Caminho_26" data-name="Caminho 26" d="M-.46.012,20,0" transform="translate(1885.5 -42.5)" fill="none" stroke="#707070" stroke-width="2"/>
        <line id="Linha_4" data-name="Linha 4" x2="84" transform="translate(1790.5 -44.5)" fill="none" stroke="#f2b705" stroke-width="1"/>
        <line id="Linha_5" data-name="Linha 5" x2="101" transform="translate(1791.5 -19.5)" fill="none" stroke="#707070" stroke-width="1"/>
        <line id="Linha_6" data-name="Linha 6" x2="101" transform="translate(1791.5 -7.5)" fill="none" stroke="#707070" stroke-width="1"/>
        <line id="Linha_7" data-name="Linha 7" x2="101" transform="translate(1791.5 4.5)" fill="none" stroke="#707070" stroke-width="1"/>
        <line id="Linha_8" data-name="Linha 8" x2="101" transform="translate(1791.5 16.5)" fill="none" stroke="#707070" stroke-width="1"/>
        <line id="Linha_9" data-name="Linha 9" x2="101" transform="translate(1791.5 28.5)" fill="none" stroke="#707070" stroke-width="1"/>
        <line id="Linha_10" data-name="Linha 10" x2="101" transform="translate(1791.5 40.5)" fill="none" stroke="#707070" stroke-width="1"/>
        <line id="Linha_11" data-name="Linha 11" x2="101" transform="translate(1791.5 52.5)" fill="none" stroke="#707070" stroke-width="1"/>
        <line id="Linha_12" data-name="Linha 12" x2="101" transform="translate(1791.5 64.5)" fill="none" stroke="#707070" stroke-width="1"/>
        <line id="Linha_13" data-name="Linha 13" x2="101" transform="translate(1791.5 76.5)" fill="none" stroke="#707070" stroke-width="1"/>
        <line id="Linha_14" data-name="Linha 14" x2="101" transform="translate(1791.5 88.5)" fill="none" stroke="#707070" stroke-width="1"/>
        <line id="Linha_15" data-name="Linha 15" x2="101" transform="translate(1791.5 88.5)" fill="none" stroke="#707070" stroke-width="1"/>
      </g>
    </g>
    <g id="Grupo_15" data-name="Grupo 15" transform="translate(-1726 -27)">
      <g id="Elipse_84" data-name="Elipse 84" transform="translate(4362 -532)" fill="none" stroke="#707070" stroke-width="1">
        <circle cx="128.5" cy="128.5" r="128.5" stroke="none"/>
        <circle cx="128.5" cy="128.5" r="128" fill="none"/>
      </g>
      <g id="Grupo_5" data-name="Grupo 5" transform="translate(3231 -420)">
        <g id="Grupo_3" data-name="Grupo 3" transform="translate(1212 -65)">
          <g id="Ret창ngulo_4" data-name="Ret창ngulo 4" fill="none" stroke="#707070" stroke-width="1">
            <rect width="95" height="163" rx="4" stroke="none"/>
            <rect x="0.5" y="0.5" width="94" height="162" rx="3.5" fill="none"/>
          </g>
          <g id="Elipse_78" data-name="Elipse 78" transform="translate(39 140)" fill="#707070" stroke="#707070" stroke-width="1">
            <ellipse cx="9" cy="9.5" rx="9" ry="9.5" stroke="none"/>
            <ellipse cx="9" cy="9.5" rx="8.5" ry="9" fill="none"/>
          </g>
          <g id="Elipse_78-2" data-name="Elipse 78" transform="translate(45 3)" fill="#707070" stroke="#707070" stroke-width="1">
            <ellipse cx="3" cy="3.5" rx="3" ry="3.5" stroke="none"/>
            <ellipse cx="3" cy="3.5" rx="2.5" ry="3" fill="none"/>
          </g>
        </g>
        <g id="Grupo_4" data-name="Grupo 4" transform="translate(1222.424 -54.576)">
          <g id="Ret창ngulo_4-2" data-name="Ret창ngulo 4" transform="translate(-5.424 2.576)" fill="none" stroke="#707070" stroke-width="1">
            <rect width="85" height="124" rx="1" stroke="none"/>
            <rect x="0.5" y="0.5" width="84" height="123" rx="0.5" fill="none"/>
          </g>
        </g>
      </g>
    </g>
    <line id="Linha_16" data-name="Linha 16" x2="91" y2="382" transform="translate(3246.5 -822.5)" fill="none" stroke="#707070" stroke-width="1"/>
    <line id="Linha_17" data-name="Linha 17" y1="197" x2="333" transform="translate(3366.5 -623.5)" fill="none" stroke="#707070" stroke-width="1"/>
    <line id="Linha_18" data-name="Linha 18" x2="301" y2="309" transform="translate(3361.5 -398.5)" fill="none" stroke="#707070" stroke-width="1"/>
    <line id="Linha_19" data-name="Linha 19" x1="183" y2="383" transform="translate(3145.5 -397.5)" fill="none" stroke="#707070" stroke-width="1"/>
    <line id="Linha_20" data-name="Linha 20" x1="427" y1="13" transform="translate(2892.5 -430.5)" fill="none" stroke="#707070" stroke-width="1"/>
  </g>
</svg>
